
<svg xmlns="http://www.w3.org/2000/svg" xmlns:xlink="http://www.w3.org/1999/xlink" contentStyleType="text/css" data-diagram-type="ACTIVITY" height="798px" preserveAspectRatio="none" style="width:568px;height:798px;background:#FFFFFF;" version="1.1" viewBox="0 0 568 798" width="568px" zoomAndPan="magnify"><defs/><g><ellipse cx="172.6367" cy="20" fill="#222222" rx="10" ry="10" style="stroke:#222222;stroke-width:1;"/><rect fill="#ED9B27" height="33.9688" rx="12.5" ry="12.5" style="stroke:#181818;stroke-width:0.5;" width="306.4355" x="19.4189" y="50"/><text fill="#000000" font-family="sans-serif" font-size="12" lengthAdjust="spacing" textLength="286.4355" x="29.4189" y="71.1387">Login &amp; Password (local)   |   via FranceConnect</text><polygon fill="#F1F1F1" points="172.6367,103.9688,172.6367,103.9688,184.6367,115.9688,172.6367,127.9688,172.6367,127.9688,160.6367,115.9688,172.6367,103.9688" style="stroke:#181818;stroke-width:0.5;"/><text fill="#ED9B27" font-family="sans-serif" font-size="11" lengthAdjust="spacing" textLength="135.2173" x="25.4194" y="113.3745">Login &amp; Password (local)</text><text fill="#000091" font-family="sans-serif" font-size="11" lengthAdjust="spacing" textLength="102.6631" x="184.6367" y="113.3745">via FranceConnect</text><rect fill="#98FB98" height="33.9688" rx="12.5" ry="12.5" style="stroke:#181818;stroke-width:0.5;" width="49.2559" x="11" y="137.9688"/><text fill="#000000" font-family="sans-serif" font-size="12" lengthAdjust="spacing" textLength="29.2559" x="21" y="159.1074">appli</text><rect fill="#000091" height="33.9688" rx="12.5" ry="12.5" style="stroke:#181818;stroke-width:0.5;" width="209.8555" x="204.7178" y="137.9688"/><text fill="#FFFFFF" font-family="sans-serif" font-size="12" lengthAdjust="spacing" textLength="189.8555" x="214.7178" y="159.1074">Authentification FranceConnect</text><polygon fill="#F1F1F1" points="266.6929,240.3398,352.5981,240.3398,364.5981,252.3398,352.5981,264.3398,266.6929,264.3398,254.6929,252.3398,266.6929,240.3398" style="stroke:#181818;stroke-width:0.5;"/><text fill="#000000" font-family="sans-serif" font-size="11" lengthAdjust="spacing" textLength="85.9053" x="266.6929" y="256.1479">déjà reconcilié?</text><text fill="#000000" font-family="sans-serif" font-size="11" lengthAdjust="spacing" textLength="16.7578" x="237.9351" y="249.7456">oui</text><rect fill="#98FB98" height="33.9688" rx="12.5" ry="12.5" style="stroke:#181818;stroke-width:0.5;" width="49.2559" x="198.7007" y="274.3398"/><text fill="#000000" font-family="sans-serif" font-size="12" lengthAdjust="spacing" textLength="29.2559" x="208.7007" y="295.4785">appli</text><rect fill="#F1F1F1" height="33.9688" rx="12.5" ry="12.5" style="stroke:#181818;stroke-width:0.5;" width="236.0117" x="277.9565" y="322.7422"/><text fill="#000000" font-family="sans-serif" font-size="12" lengthAdjust="spacing" textLength="216.0117" x="287.9565" y="343.8809">ajout supannFCSub au compte local</text><rect fill="#98FB98" height="33.9688" rx="12.5" ry="12.5" style="stroke:#181818;stroke-width:0.5;" width="49.2559" x="371.3345" y="391.7109"/><text fill="#000000" font-family="sans-serif" font-size="12" lengthAdjust="spacing" textLength="29.2559" x="381.3345" y="412.8496">appli</text><polygon fill="#F1F1F1" points="296.5139,274.3398,495.4109,274.3398,507.4109,286.3398,495.4109,298.3398,296.5139,298.3398,284.5139,286.3398,296.5139,274.3398" style="stroke:#181818;stroke-width:0.5;"/><text fill="#000000" font-family="sans-serif" font-size="11" lengthAdjust="spacing" textLength="16.7578" x="399.9624" y="308.5503">oui</text><text fill="#000000" font-family="sans-serif" font-size="11" lengthAdjust="spacing" textLength="198.897" x="296.5139" y="290.1479">compte local avec même état civil ?</text><text fill="#000000" font-family="sans-serif" font-size="11" lengthAdjust="spacing" textLength="20.6733" x="507.4109" y="283.7456">non</text><polygon fill="#F1F1F1" points="256.2676,191.9375,363.0234,191.9375,375.0234,203.9375,363.0234,215.9375,256.2676,215.9375,244.2676,203.9375,256.2676,191.9375" style="stroke:#181818;stroke-width:0.5;"/><text fill="#000000" font-family="sans-serif" font-size="11" lengthAdjust="spacing" textLength="20.6733" x="313.6455" y="226.1479">non</text><text fill="#000000" font-family="sans-serif" font-size="11" lengthAdjust="spacing" textLength="106.7559" x="256.2676" y="207.7456">force double auth ?</text><text fill="#000000" font-family="sans-serif" font-size="11" lengthAdjust="spacing" textLength="16.7578" x="375.0234" y="201.3433">oui</text><polygon fill="#F1F1F1" points="309.6455,467.6797,321.6455,479.6797,309.6455,491.6797,297.6455,479.6797,309.6455,467.6797" style="stroke:#181818;stroke-width:0.5;"/><rect fill="#ED9B27" height="33.9688" rx="12.5" ry="12.5" style="stroke:#181818;stroke-width:0.5;" width="167.5098" x="225.8906" y="511.6797"/><text fill="#000000" font-family="sans-serif" font-size="12" lengthAdjust="spacing" textLength="147.5098" x="235.8906" y="532.8184">Login &amp; Password (local)</text><polygon fill="#F1F1F1" points="240.2617,609.6484,379.0293,609.6484,391.0293,621.6484,379.0293,633.6484,240.2617,633.6484,228.2617,621.6484,240.2617,609.6484" style="stroke:#181818;stroke-width:0.5;"/><text fill="#000000" font-family="sans-serif" font-size="11" lengthAdjust="spacing" textLength="138.7676" x="240.2617" y="625.4565">même date de naissance</text><text fill="#000000" font-family="sans-serif" font-size="11" lengthAdjust="spacing" textLength="16.7578" x="211.5039" y="619.0542">oui</text><text fill="#000000" font-family="sans-serif" font-size="11" lengthAdjust="spacing" textLength="20.6733" x="391.0293" y="619.0542">non</text><rect fill="#F1F1F1" height="33.9688" rx="12.5" ry="12.5" style="stroke:#181818;stroke-width:0.5;" width="236.0117" x="100.2559" y="643.6484"/><text fill="#000000" font-family="sans-serif" font-size="12" lengthAdjust="spacing" textLength="216.0117" x="110.2559" y="664.7871">ajout supannFCSub au compte local</text><rect fill="#FFC0CB" height="33.9688" rx="12.5" ry="12.5" style="stroke:#181818;stroke-width:0.5;" width="57.1719" x="372.4434" y="643.6484"/><text fill="#000000" font-family="sans-serif" font-size="12" lengthAdjust="spacing" textLength="37.1719" x="382.4434" y="664.7871">erreur</text><polygon fill="#F1F1F1" points="220.5659,565.6484,398.7251,565.6484,410.7251,577.6484,398.7251,589.6484,220.5659,589.6484,208.5659,577.6484,220.5659,565.6484" style="stroke:#181818;stroke-width:0.5;"/><text fill="#000000" font-family="sans-serif" font-size="11" lengthAdjust="spacing" textLength="178.1592" x="220.5659" y="581.4565">déjà reconcilié et même compte</text><text fill="#000000" font-family="sans-serif" font-size="11" lengthAdjust="spacing" textLength="16.7578" x="410.7251" y="575.0542">oui</text><polygon fill="#F1F1F1" points="309.6455,697.6172,321.6455,709.6172,309.6455,721.6172,297.6455,709.6172,309.6455,697.6172" style="stroke:#181818;stroke-width:0.5;"/><rect fill="#98FB98" height="45.6094" rx="12.5" ry="12.5" style="stroke:#181818;stroke-width:0.5;" width="183.3838" x="217.9536" y="741.6172"/><text fill="#000000" font-family="sans-serif" font-size="12" lengthAdjust="spacing" textLength="29.2559" x="227.9536" y="762.7559">appli</text><text fill="#000000" font-family="sans-serif" font-size="10" lengthAdjust="spacing" textLength="163.3838" x="227.9536" y="774.8682">first_clientName: FranceConnect</text><line style="stroke:#181818;stroke-width:1;" x1="172.6367" x2="172.6367" y1="30" y2="50"/><polygon fill="#181818" points="168.6367,40,172.6367,50,176.6367,40,172.6367,44" style="stroke:#181818;stroke-width:1;"/><line style="stroke:#181818;stroke-width:1;" x1="395.9624" x2="395.9624" y1="356.7109" y2="391.7109"/><polygon fill="#181818" points="391.9624,381.7109,395.9624,391.7109,399.9624,381.7109,395.9624,385.7109" style="stroke:#181818;stroke-width:1;"/><line style="stroke:#181818;stroke-width:1;" x1="395.9624" x2="395.9624" y1="298.3398" y2="322.7422"/><polygon fill="#181818" points="391.9624,312.7422,395.9624,322.7422,399.9624,312.7422,395.9624,316.7422" style="stroke:#181818;stroke-width:1;"/><line style="stroke:#181818;stroke-width:1;" x1="507.4109" x2="523.9683" y1="286.3398" y2="286.3398"/><polygon fill="#181818" points="519.9683,364.2109,523.9683,374.2109,527.9683,364.2109,523.9683,368.2109" style="stroke:#181818;stroke-width:1;"/><line style="stroke:#181818;stroke-width:1;" x1="523.9683" x2="523.9683" y1="286.3398" y2="452.6797"/><line style="stroke:#181818;stroke-width:1;" x1="523.9683" x2="309.6455" y1="452.6797" y2="452.6797"/><line style="stroke:#181818;stroke-width:1;" x1="309.6455" x2="309.6455" y1="452.6797" y2="467.6797"/><polygon fill="#181818" points="305.6455,457.6797,309.6455,467.6797,313.6455,457.6797,309.6455,461.6797" style="stroke:#181818;stroke-width:1;"/><line style="stroke:#181818;stroke-width:1;" x1="254.6929" x2="223.3286" y1="252.3398" y2="252.3398"/><line style="stroke:#181818;stroke-width:1;" x1="223.3286" x2="223.3286" y1="252.3398" y2="274.3398"/><polygon fill="#181818" points="219.3286,264.3398,223.3286,274.3398,227.3286,264.3398,223.3286,268.3398" style="stroke:#181818;stroke-width:1;"/><line style="stroke:#181818;stroke-width:1;" x1="364.5981" x2="395.9624" y1="252.3398" y2="252.3398"/><line style="stroke:#181818;stroke-width:1;" x1="395.9624" x2="395.9624" y1="252.3398" y2="274.3398"/><polygon fill="#181818" points="391.9624,264.3398,395.9624,274.3398,399.9624,264.3398,395.9624,268.3398" style="stroke:#181818;stroke-width:1;"/><line style="stroke:#181818;stroke-width:1;" x1="309.6455" x2="309.6455" y1="215.9375" y2="240.3398"/><polygon fill="#181818" points="305.6455,230.3398,309.6455,240.3398,313.6455,230.3398,309.6455,234.3398" style="stroke:#181818;stroke-width:1;"/><line style="stroke:#181818;stroke-width:1;" x1="375.0234" x2="542.0842" y1="203.9375" y2="203.9375"/><polygon fill="#181818" points="538.0842,341.2109,542.0842,351.2109,546.0842,341.2109,542.0842,345.2109" style="stroke:#181818;stroke-width:1;"/><line style="stroke:#181818;stroke-width:1;" x1="542.0842" x2="542.0842" y1="203.9375" y2="479.6797"/><line style="stroke:#181818;stroke-width:1;" x1="542.0842" x2="321.6455" y1="479.6797" y2="479.6797"/><polygon fill="#181818" points="331.6455,475.6797,321.6455,479.6797,331.6455,483.6797,327.6455,479.6797" style="stroke:#181818;stroke-width:1;"/><line style="stroke:#181818;stroke-width:1;" x1="309.6455" x2="309.6455" y1="171.9375" y2="191.9375"/><polygon fill="#181818" points="305.6455,181.9375,309.6455,191.9375,313.6455,181.9375,309.6455,185.9375" style="stroke:#181818;stroke-width:1;"/><line style="stroke:#181818;stroke-width:1;" x1="309.6455" x2="309.6455" y1="491.6797" y2="511.6797"/><polygon fill="#181818" points="305.6455,501.6797,309.6455,511.6797,313.6455,501.6797,309.6455,505.6797" style="stroke:#181818;stroke-width:1;"/><line style="stroke:#181818;stroke-width:1;" x1="228.2617" x2="218.2617" y1="621.6484" y2="621.6484"/><line style="stroke:#181818;stroke-width:1;" x1="218.2617" x2="218.2617" y1="621.6484" y2="643.6484"/><polygon fill="#181818" points="214.2617,633.6484,218.2617,643.6484,222.2617,633.6484,218.2617,637.6484" style="stroke:#181818;stroke-width:1;"/><line style="stroke:#181818;stroke-width:1;" x1="391.0293" x2="401.0293" y1="621.6484" y2="621.6484"/><line style="stroke:#181818;stroke-width:1;" x1="401.0293" x2="401.0293" y1="621.6484" y2="643.6484"/><polygon fill="#181818" points="397.0293,633.6484,401.0293,643.6484,405.0293,633.6484,401.0293,637.6484" style="stroke:#181818;stroke-width:1;"/><line style="stroke:#181818;stroke-width:1;" x1="218.2617" x2="218.2617" y1="677.6172" y2="682.6172"/><line style="stroke:#181818;stroke-width:1;" x1="218.2617" x2="309.6455" y1="682.6172" y2="682.6172"/><line style="stroke:#181818;stroke-width:1;" x1="309.6455" x2="309.6455" y1="682.6172" y2="697.6172"/><polygon fill="#181818" points="305.6455,687.6172,309.6455,697.6172,313.6455,687.6172,309.6455,691.6172" style="stroke:#181818;stroke-width:1;"/><line style="stroke:#181818;stroke-width:1;" x1="309.6455" x2="309.6455" y1="589.6484" y2="609.6484"/><polygon fill="#181818" points="305.6455,599.6484,309.6455,609.6484,313.6455,599.6484,309.6455,603.6484" style="stroke:#181818;stroke-width:1;"/><line style="stroke:#181818;stroke-width:1;" x1="410.7251" x2="449.6152" y1="577.6484" y2="577.6484"/><polygon fill="#181818" points="445.6152,636.6328,449.6152,646.6328,453.6152,636.6328,449.6152,640.6328" style="stroke:#181818;stroke-width:1;"/><line style="stroke:#181818;stroke-width:1;" x1="449.6152" x2="449.6152" y1="577.6484" y2="709.6172"/><line style="stroke:#181818;stroke-width:1;" x1="449.6152" x2="321.6455" y1="709.6172" y2="709.6172"/><polygon fill="#181818" points="331.6455,705.6172,321.6455,709.6172,331.6455,713.6172,327.6455,709.6172" style="stroke:#181818;stroke-width:1;"/><line style="stroke:#181818;stroke-width:1;" x1="309.6455" x2="309.6455" y1="545.6484" y2="565.6484"/><polygon fill="#181818" points="305.6455,555.6484,309.6455,565.6484,313.6455,555.6484,309.6455,559.6484" style="stroke:#181818;stroke-width:1;"/><line style="stroke:#181818;stroke-width:1;" x1="309.6455" x2="309.6455" y1="721.6172" y2="741.6172"/><polygon fill="#181818" points="305.6455,731.6172,309.6455,741.6172,313.6455,731.6172,309.6455,735.6172" style="stroke:#181818;stroke-width:1;"/><line style="stroke:#181818;stroke-width:1;" x1="160.6367" x2="35.6279" y1="115.9688" y2="115.9688"/><line style="stroke:#181818;stroke-width:1;" x1="35.6279" x2="35.6279" y1="115.9688" y2="137.9688"/><polygon fill="#181818" points="31.6279,127.9688,35.6279,137.9688,39.6279,127.9688,35.6279,131.9688" style="stroke:#181818;stroke-width:1;"/><line style="stroke:#181818;stroke-width:1;" x1="184.6367" x2="309.6455" y1="115.9688" y2="115.9688"/><line style="stroke:#181818;stroke-width:1;" x1="309.6455" x2="309.6455" y1="115.9688" y2="137.9688"/><polygon fill="#181818" points="305.6455,127.9688,309.6455,137.9688,313.6455,127.9688,309.6455,131.9688" style="stroke:#181818;stroke-width:1;"/><line style="stroke:#181818;stroke-width:1;" x1="172.6367" x2="172.6367" y1="83.9688" y2="103.9688"/><polygon fill="#181818" points="168.6367,93.9688,172.6367,103.9688,176.6367,93.9688,172.6367,97.9688" style="stroke:#181818;stroke-width:1;"/><!--SRC=[hLF1QiCm3BtdAmI5qTxQNKRTqZ4AFOqns7KmL4TfrJbsi9qMnZvcr-utycDpbhJDcgoxp12mBUlflIV5URG-YW1w58-NrpVYtgnOmnKyedCxOsFeAoDH3G3WFNnRHbXOr9BcHckIVX9oEO7-0FoQDFIdqYXZHGqt-mrk4DB2wcMeQ6M9jC0iKpo1wZucZt8TzgGSdK27OOr7inQ90reL5_NptPezpUxoafZdX2LwDhfD7oe5YR6I83RvKX5Wo8BRWoYJSrsYugEDhizLQbpiDyK7M996IrPSx3jIkmKtOaVHnqgdO5b5cZJp1Dy60cv9GbfyfWJ5tgC7oLjMy5jT084RatjmUOPQB-PF-JA8X2RcvCVxIqpFkNRv4kvqp4dKFZIsVqrTeprjZu5yxK2behjRKTF2wdcCGN9Ce96TAuVXFqphSY2OoFfLaBMKsmkjxlRch07FUkhuZSHeE4lOElyY5OV1Vi2KHETGdtwY4lGB]--></g><script xmlns=""/><script xmlns=""/></svg>
