<svg xmlns="http://www.w3.org/2000/svg" xmlns:xlink="http://www.w3.org/1999/xlink" contentStyleType="text/css" data-diagram-type="ACTIVITY" height="812px" preserveAspectRatio="none" style="width:570px;height:812px;background:#FFFFFF;" version="1.1" viewBox="0 0 570 812" width="570px" zoomAndPan="magnify"><?plantuml 1.2026.3beta6?><defs/><g><ellipse cx="169.5652" cy="25" fill="#222222" rx="10" ry="10" style="stroke:#222222;stroke-width:1;"/><rect fill="#ED9B27" height="33.9688" rx="12.5" ry="12.5" style="stroke:#181818;stroke-width:0.5;" width="306.4355" x="16.3474" y="55"/><text fill="#000000" font-family="sans-serif" font-size="12" lengthAdjust="spacing" textLength="286.4355" x="26.3474" y="76.1387">Login &amp; Password (local)   |   via FranceConnect</text><polygon fill="#F1F1F1" points="169.5652,108.9688,169.5652,108.9688,181.5652,120.9688,169.5652,132.9688,169.5652,132.9688,157.5652,120.9688,169.5652,108.9688" style="stroke:#181818;stroke-width:0.5;"/><text fill="#ED9B27" font-family="sans-serif" font-size="11" lengthAdjust="spacing" textLength="135.2173" x="22.3479" y="118.3745">Login &amp; Password (local)</text><text fill="#000091" font-family="sans-serif" font-size="11" lengthAdjust="spacing" textLength="102.6631" x="181.5652" y="118.3745">via FranceConnect</text><rect fill="#98FB98" height="33.9688" rx="12.5" ry="12.5" style="stroke:#181818;stroke-width:0.5;" width="49.2559" x="16" y="142.9688"/><text fill="#000000" font-family="sans-serif" font-size="12" lengthAdjust="spacing" textLength="29.2559" x="26" y="164.1074">appli</text><rect fill="#000091" height="33.9688" rx="12.5" ry="12.5" style="stroke:#181818;stroke-width:0.5;" width="201.4414" x="197.7817" y="142.9688"/><text fill="#FFFFFF" font-family="sans-serif" font-size="12" lengthAdjust="spacing" textLength="181.4414" x="207.7817" y="164.1074">FranceConnect authentication</text><polygon fill="#F1F1F1" points="244.7002,245.3398,352.3047,245.3398,364.3047,257.3398,352.3047,269.3398,244.7002,269.3398,232.7002,257.3398,244.7002,245.3398" style="stroke:#181818;stroke-width:0.5;"/><text fill="#000000" font-family="sans-serif" font-size="11" lengthAdjust="spacing" textLength="107.6045" x="244.7002" y="261.1479">already reconciled?</text><text fill="#000000" font-family="sans-serif" font-size="11" lengthAdjust="spacing" textLength="19.0083" x="213.6919" y="254.7456">yes</text><rect fill="#98FB98" height="33.9688" rx="12.5" ry="12.5" style="stroke:#181818;stroke-width:0.5;" width="49.2559" x="189.6055" y="279.3398"/><text fill="#000000" font-family="sans-serif" font-size="12" lengthAdjust="spacing" textLength="29.2559" x="199.6055" y="300.4785">appli</text><rect fill="#F1F1F1" height="33.9688" rx="12.5" ry="12.5" style="stroke:#181818;stroke-width:0.5;" width="227.8203" x="268.8613" y="327.7422"/><text fill="#000000" font-family="sans-serif" font-size="12" lengthAdjust="spacing" textLength="207.8203" x="278.8613" y="348.8809">add supannFCSub to local account</text><rect fill="#98FB98" height="33.9688" rx="12.5" ry="12.5" style="stroke:#181818;stroke-width:0.5;" width="49.2559" x="358.1436" y="396.7109"/><text fill="#000000" font-family="sans-serif" font-size="12" lengthAdjust="spacing" textLength="29.2559" x="368.1436" y="417.8496">appli</text><polygon fill="#F1F1F1" points="271.751,279.3398,493.792,279.3398,505.792,291.3398,493.792,303.3398,271.751,303.3398,259.751,291.3398,271.751,279.3398" style="stroke:#181818;stroke-width:0.5;"/><text fill="#000000" font-family="sans-serif" font-size="11" lengthAdjust="spacing" textLength="19.0083" x="386.7715" y="313.5503">yes</text><text fill="#000000" font-family="sans-serif" font-size="11" lengthAdjust="spacing" textLength="222.041" x="271.751" y="295.1479">local account and same identity details?</text><text fill="#000000" font-family="sans-serif" font-size="11" lengthAdjust="spacing" textLength="13.7017" x="505.792" y="288.7456">no</text><polygon fill="#F1F1F1" points="245.1245,196.9375,351.8804,196.9375,363.8804,208.9375,351.8804,220.9375,245.1245,220.9375,233.1245,208.9375,245.1245,196.9375" style="stroke:#181818;stroke-width:0.5;"/><text fill="#000000" font-family="sans-serif" font-size="11" lengthAdjust="spacing" textLength="13.7017" x="302.5024" y="231.1479">no</text><text fill="#000000" font-family="sans-serif" font-size="11" lengthAdjust="spacing" textLength="106.7559" x="245.1245" y="212.7456">force double auth ?</text><text fill="#000000" font-family="sans-serif" font-size="11" lengthAdjust="spacing" textLength="19.0083" x="363.8804" y="206.3433">yes</text><polygon fill="#F1F1F1" points="298.5024,472.6797,310.5024,484.6797,298.5024,496.6797,286.5024,484.6797,298.5024,472.6797" style="stroke:#181818;stroke-width:0.5;"/><rect fill="#ED9B27" height="33.9688" rx="12.5" ry="12.5" style="stroke:#181818;stroke-width:0.5;" width="167.5098" x="214.7476" y="516.6797"/><text fill="#000000" font-family="sans-serif" font-size="12" lengthAdjust="spacing" textLength="147.5098" x="224.7476" y="537.8184">Login &amp; Password (local)</text><polygon fill="#F1F1F1" points="254.7039,614.6484,342.301,614.6484,354.301,626.6484,342.301,638.6484,254.7039,638.6484,242.7039,626.6484,254.7039,614.6484" style="stroke:#181818;stroke-width:0.5;"/><text fill="#000000" font-family="sans-serif" font-size="11" lengthAdjust="spacing" textLength="87.5972" x="254.7039" y="630.4565">same birth date</text><text fill="#000000" font-family="sans-serif" font-size="11" lengthAdjust="spacing" textLength="19.0083" x="223.6956" y="624.0542">yes</text><text fill="#000000" font-family="sans-serif" font-size="11" lengthAdjust="spacing" textLength="13.7017" x="354.301" y="624.0542">no</text><rect fill="#F1F1F1" height="33.9688" rx="12.5" ry="12.5" style="stroke:#181818;stroke-width:0.5;" width="227.8203" x="105.2559" y="648.6484"/><text fill="#000000" font-family="sans-serif" font-size="12" lengthAdjust="spacing" textLength="207.8203" x="115.2559" y="669.7871">add supannFCSub to local account</text><rect fill="#FFC0CB" height="33.9688" rx="12.5" ry="12.5" style="stroke:#181818;stroke-width:0.5;" width="49.5254" x="353.0762" y="648.6484"/><text fill="#000000" font-family="sans-serif" font-size="12" lengthAdjust="spacing" textLength="29.5254" x="363.0762" y="669.7871">error</text><polygon fill="#F1F1F1" points="195.1384,570.6484,401.8665,570.6484,413.8665,582.6484,401.8665,594.6484,195.1384,594.6484,183.1384,582.6484,195.1384,570.6484" style="stroke:#181818;stroke-width:0.5;"/><text fill="#000000" font-family="sans-serif" font-size="11" lengthAdjust="spacing" textLength="206.728" x="195.1384" y="586.4565">already reconciled and same account</text><text fill="#000000" font-family="sans-serif" font-size="11" lengthAdjust="spacing" textLength="19.0083" x="413.8665" y="580.0542">yes</text><polygon fill="#F1F1F1" points="298.5024,702.6172,310.5024,714.6172,298.5024,726.6172,286.5024,714.6172,298.5024,702.6172" style="stroke:#181818;stroke-width:0.5;"/><rect fill="#98FB98" height="45.6094" rx="12.5" ry="12.5" style="stroke:#181818;stroke-width:0.5;" width="183.3838" x="206.8105" y="746.6172"/><text fill="#000000" font-family="sans-serif" font-size="12" lengthAdjust="spacing" textLength="29.2559" x="216.8105" y="767.7559">appli</text><text fill="#000000" font-family="sans-serif" font-size="10" lengthAdjust="spacing" textLength="163.3838" x="216.8105" y="779.8682">first_clientName: FranceConnect</text><line style="stroke:#181818;stroke-width:1;" x1="169.5652" x2="169.5652" y1="35" y2="55"/><polygon fill="#181818" points="165.5652,45,169.5652,55,173.5652,45,169.5652,49" style="stroke:#181818;stroke-width:1;"/><line style="stroke:#181818;stroke-width:1;" x1="382.7715" x2="382.7715" y1="361.7109" y2="396.7109"/><polygon fill="#181818" points="378.7715,386.7109,382.7715,396.7109,386.7715,386.7109,382.7715,390.7109" style="stroke:#181818;stroke-width:1;"/><line style="stroke:#181818;stroke-width:1;" x1="382.7715" x2="382.7715" y1="303.3398" y2="327.7422"/><polygon fill="#181818" points="378.7715,317.7422,382.7715,327.7422,386.7715,317.7422,382.7715,321.7422" style="stroke:#181818;stroke-width:1;"/><line style="stroke:#181818;stroke-width:1;" x1="505.792" x2="517.792" y1="291.3398" y2="291.3398"/><polygon fill="#181818" points="513.792,369.2109,517.792,379.2109,521.792,369.2109,517.792,373.2109" style="stroke:#181818;stroke-width:1;"/><line style="stroke:#181818;stroke-width:1;" x1="517.792" x2="517.792" y1="291.3398" y2="457.6797"/><line style="stroke:#181818;stroke-width:1;" x1="517.792" x2="298.5024" y1="457.6797" y2="457.6797"/><line style="stroke:#181818;stroke-width:1;" x1="298.5024" x2="298.5024" y1="457.6797" y2="472.6797"/><polygon fill="#181818" points="294.5024,462.6797,298.5024,472.6797,302.5024,462.6797,298.5024,466.6797" style="stroke:#181818;stroke-width:1;"/><line style="stroke:#181818;stroke-width:1;" x1="232.7002" x2="214.2334" y1="257.3398" y2="257.3398"/><line style="stroke:#181818;stroke-width:1;" x1="214.2334" x2="214.2334" y1="257.3398" y2="279.3398"/><polygon fill="#181818" points="210.2334,269.3398,214.2334,279.3398,218.2334,269.3398,214.2334,273.3398" style="stroke:#181818;stroke-width:1;"/><line style="stroke:#181818;stroke-width:1;" x1="364.3047" x2="382.7715" y1="257.3398" y2="257.3398"/><line style="stroke:#181818;stroke-width:1;" x1="382.7715" x2="382.7715" y1="257.3398" y2="279.3398"/><polygon fill="#181818" points="378.7715,269.3398,382.7715,279.3398,386.7715,269.3398,382.7715,273.3398" style="stroke:#181818;stroke-width:1;"/><line style="stroke:#181818;stroke-width:1;" x1="298.5024" x2="298.5024" y1="220.9375" y2="245.3398"/><polygon fill="#181818" points="294.5024,235.3398,298.5024,245.3398,302.5024,235.3398,298.5024,239.3398" style="stroke:#181818;stroke-width:1;"/><line style="stroke:#181818;stroke-width:1;" x1="363.8804" x2="535.792" y1="208.9375" y2="208.9375"/><polygon fill="#181818" points="531.792,346.2109,535.792,356.2109,539.792,346.2109,535.792,350.2109" style="stroke:#181818;stroke-width:1;"/><line style="stroke:#181818;stroke-width:1;" x1="535.792" x2="535.792" y1="208.9375" y2="484.6797"/><line style="stroke:#181818;stroke-width:1;" x1="535.792" x2="310.5024" y1="484.6797" y2="484.6797"/><polygon fill="#181818" points="320.5024,480.6797,310.5024,484.6797,320.5024,488.6797,316.5024,484.6797" style="stroke:#181818;stroke-width:1;"/><line style="stroke:#181818;stroke-width:1;" x1="298.5024" x2="298.5024" y1="176.9375" y2="196.9375"/><polygon fill="#181818" points="294.5024,186.9375,298.5024,196.9375,302.5024,186.9375,298.5024,190.9375" style="stroke:#181818;stroke-width:1;"/><line style="stroke:#181818;stroke-width:1;" x1="298.5024" x2="298.5024" y1="496.6797" y2="516.6797"/><polygon fill="#181818" points="294.5024,506.6797,298.5024,516.6797,302.5024,506.6797,298.5024,510.6797" style="stroke:#181818;stroke-width:1;"/><line style="stroke:#181818;stroke-width:1;" x1="242.7039" x2="219.166" y1="626.6484" y2="626.6484"/><line style="stroke:#181818;stroke-width:1;" x1="219.166" x2="219.166" y1="626.6484" y2="648.6484"/><polygon fill="#181818" points="215.166,638.6484,219.166,648.6484,223.166,638.6484,219.166,642.6484" style="stroke:#181818;stroke-width:1;"/><line style="stroke:#181818;stroke-width:1;" x1="354.301" x2="377.8389" y1="626.6484" y2="626.6484"/><line style="stroke:#181818;stroke-width:1;" x1="377.8389" x2="377.8389" y1="626.6484" y2="648.6484"/><polygon fill="#181818" points="373.8389,638.6484,377.8389,648.6484,381.8389,638.6484,377.8389,642.6484" style="stroke:#181818;stroke-width:1;"/><line style="stroke:#181818;stroke-width:1;" x1="219.166" x2="219.166" y1="682.6172" y2="687.6172"/><line style="stroke:#181818;stroke-width:1;" x1="219.166" x2="298.5024" y1="687.6172" y2="687.6172"/><line style="stroke:#181818;stroke-width:1;" x1="298.5024" x2="298.5024" y1="687.6172" y2="702.6172"/><polygon fill="#181818" points="294.5024,692.6172,298.5024,702.6172,302.5024,692.6172,298.5024,696.6172" style="stroke:#181818;stroke-width:1;"/><line style="stroke:#181818;stroke-width:1;" x1="298.5024" x2="298.5024" y1="594.6484" y2="614.6484"/><polygon fill="#181818" points="294.5024,604.6484,298.5024,614.6484,302.5024,604.6484,298.5024,608.6484" style="stroke:#181818;stroke-width:1;"/><line style="stroke:#181818;stroke-width:1;" x1="413.8665" x2="425.8665" y1="582.6484" y2="582.6484"/><polygon fill="#181818" points="421.8665,641.6328,425.8665,651.6328,429.8665,641.6328,425.8665,645.6328" style="stroke:#181818;stroke-width:1;"/><line style="stroke:#181818;stroke-width:1;" x1="425.8665" x2="425.8665" y1="582.6484" y2="714.6172"/><line style="stroke:#181818;stroke-width:1;" x1="425.8665" x2="310.5024" y1="714.6172" y2="714.6172"/><polygon fill="#181818" points="320.5024,710.6172,310.5024,714.6172,320.5024,718.6172,316.5024,714.6172" style="stroke:#181818;stroke-width:1;"/><line style="stroke:#181818;stroke-width:1;" x1="298.5024" x2="298.5024" y1="550.6484" y2="570.6484"/><polygon fill="#181818" points="294.5024,560.6484,298.5024,570.6484,302.5024,560.6484,298.5024,564.6484" style="stroke:#181818;stroke-width:1;"/><line style="stroke:#181818;stroke-width:1;" x1="298.5024" x2="298.5024" y1="726.6172" y2="746.6172"/><polygon fill="#181818" points="294.5024,736.6172,298.5024,746.6172,302.5024,736.6172,298.5024,740.6172" style="stroke:#181818;stroke-width:1;"/><line style="stroke:#181818;stroke-width:1;" x1="157.5652" x2="40.6279" y1="120.9688" y2="120.9688"/><line style="stroke:#181818;stroke-width:1;" x1="40.6279" x2="40.6279" y1="120.9688" y2="142.9688"/><polygon fill="#181818" points="36.6279,132.9688,40.6279,142.9688,44.6279,132.9688,40.6279,136.9688" style="stroke:#181818;stroke-width:1;"/><line style="stroke:#181818;stroke-width:1;" x1="181.5652" x2="298.5024" y1="120.9688" y2="120.9688"/><line style="stroke:#181818;stroke-width:1;" x1="298.5024" x2="298.5024" y1="120.9688" y2="142.9688"/><polygon fill="#181818" points="294.5024,132.9688,298.5024,142.9688,302.5024,132.9688,298.5024,136.9688" style="stroke:#181818;stroke-width:1;"/><line style="stroke:#181818;stroke-width:1;" x1="169.5652" x2="169.5652" y1="88.9688" y2="108.9688"/><polygon fill="#181818" points="165.5652,98.9688,169.5652,108.9688,173.5652,98.9688,169.5652,102.9688" style="stroke:#181818;stroke-width:1;"/><?plantuml-src hLDDQyCm3BtdLmW6exsrkuoc8JiKUXfZiEjWABRIYdboi9sLZltuEMcwVYNTPOA07UizwJtPFg0BIGAGFjeL2zp2Ctg_iKx3o5Y5PWm0t_7xP8IbGr6qi2AamZpBRaZFYhlxF8zuBc4qXh0cWL6chB4ktHyFCOyZB4QALMMueQlGqCeHISiOGrD0jOvhCfuEl9COisb-qTAUiClRh3bGVf81M3Sj1bOOs4fJj2FhAZOoIkiKWRPrOQW5mCDUsPPyLsJNaTXkkqEYSOHw2uwK5SM6T0_oBz6dod-B7GwRIgs3W4hPMg8gqU3nWu1r8oviMpmRFrI-QK17J5sXo7BnKXSGB9oGpi_Ih_Txtd6FGV6NQ2wJoytHSl0QdbstGSCFNdGw-aUN79lPfXViugGr1le7pth4GqhEMTTQoF9-RThzphGJU9NCynUbqqbUilFXJHcE8t-A2jBBztdbGJN4Fm00?></g><script xmlns=""/></svg>